STARTFONT 2.1
COMMENT CVS:Version $Id 1.1
COMMENT
COMMENT (C) CENA/J.L. Vinot, 2002, CENA (Centre d'Etudes de la Navigation Aťrienne)
COMMENT This software is free software; you can redistribute it and/or modify it 
COMMENT under the terms of the GNU Lesser General Public License as published by the Free Software Foundation: 
COMMENT either version 2 of the License, or (at your option) any later version.
COMMENT 
COMMENT This software is distributed in the hope that it will be useful, but WITHOUT ANY WARRANTY; 
COMMENT without even the implied warranty of MERCHANTABILITY or FITNESS FOR A PARTICULAR PURPOSE.  
COMMENT See the GNU Lesser General Public License for more details.
COMMENT 
COMMENT You should have received a copy of the GNU Lesser General Public License along with this software; 
COMMENT if not, write to the Free Software Foundation, Inc., 59 Temple Place - Suite 330, Boston, MA  02111-1307, USA.
COMMENT Please refer to http://www.gnu.org/copyleft/gpl.html
COMMENT 
COMMENT This font has been originally designed by CENA/France for the specific needs of Air Traffic Control. 
COMMENT For example, it must offer good legibility and avoid any confusion between character shapes. 
COMMENT CENA would like to preserve its qualities. If you have any specific need, you can modify this font, 
COMMENT but we would like you to change its name to avoid any confusion between your new font and the original one designed by CENA.
COMMENT Note however, that as implied in the LGPL licence, you must credit CENA for the original work. 
COMMENT Finally, CENA would appreciate it if you send back any enhancement or extension made to the original work. 
COMMENT This statement must be fully included with any further distribution of the font.
COMMENT 
COMMENT to contact us: email to:  pii-contact@cena.fr
COMMENT write to: CENA, 7 avenue Edouard Belin, 31400 Toulouse, France 
FONT -CenaPii-Bleriot Radar-Medium-R-Condensed--8-80-75-75-P-66-ISO8859-15
SIZE 8 72 72

STARTCHAR gcid14
ENCODING 20
SWIDTH 1000 0
DWIDTH 8 0
BBX 6 2 1 3
BITMAP
FC
FC
ENDCHAR
STARTCHAR gcid15
ENCODING 21
SWIDTH 1125 0
DWIDTH 9 0
BBX 7 7 1 0
BITMAP
40
E0
72
3E
1E
1E
3E
ENDCHAR
STARTCHAR gcid16
ENCODING 22
SWIDTH 1125 0
DWIDTH 9 0
BBX 7 7 2 0
BITMAP
3E
1E
1E
3E
72
E0
40
ENDCHAR
STARTCHAR space
ENCODING 32
SWIDTH 875 0
DWIDTH 7 0
BBX 0 0 0 0
BITMAP
ENDCHAR
STARTCHAR exclam
ENCODING 33
SWIDTH 875 0
DWIDTH 7 0
BBX 2 7 2 0
BITMAP
C0
C0
C0
C0
C0
00
C0
ENDCHAR
STARTCHAR quotedbl
ENCODING 34
SWIDTH 625 0
DWIDTH 5 0
BBX 3 2 1 5
BITMAP
A0
A0
ENDCHAR
STARTCHAR numbersign
ENCODING 35
SWIDTH 875 0
DWIDTH 7 0
BBX 5 7 1 0
BITMAP
50
50
F8
50
F8
50
50
ENDCHAR
STARTCHAR dollar
ENCODING 36
SWIDTH 875 0
DWIDTH 7 0
BBX 5 9 1 -1
BITMAP
20
70
A8
E0
70
38
A8
70
20
ENDCHAR
STARTCHAR percent
ENCODING 37
SWIDTH 1125 0
DWIDTH 9 0
BBX 7 7 1 0
BITMAP
4C
E8
58
10
34
2E
64
ENDCHAR
STARTCHAR ampersand
ENCODING 38
SWIDTH 1125 0
DWIDTH 9 0
BBX 8 7 1 0
BITMAP
38
6C
38
79
CE
CE
73
ENDCHAR
STARTCHAR quotesingle
ENCODING 39
SWIDTH 375 0
DWIDTH 3 0
BBX 1 2 1 5
BITMAP
80
80
ENDCHAR
STARTCHAR parenleft
ENCODING 40
SWIDTH 625 0
DWIDTH 5 0
BBX 3 10 1 -2
BITMAP
20
40
40
C0
C0
C0
C0
40
40
20
ENDCHAR
STARTCHAR parenright
ENCODING 41
SWIDTH 625 0
DWIDTH 5 0
BBX 3 10 1 -2
BITMAP
80
40
40
60
60
60
60
40
40
80
ENDCHAR
STARTCHAR asterisk
ENCODING 42
SWIDTH 875 0
DWIDTH 7 0
BBX 5 5 1 3
BITMAP
20
A8
70
A8
20
ENDCHAR
STARTCHAR plus
ENCODING 43
SWIDTH 875 0
DWIDTH 7 0
BBX 6 5 1 0
BITMAP
30
30
FC
30
30
ENDCHAR
STARTCHAR comma
ENCODING 44
SWIDTH 625 0
DWIDTH 5 0
BBX 2 3 1 -1
BITMAP
C0
C0
80
ENDCHAR
STARTCHAR hyphen
ENCODING 45
SWIDTH 750 0
DWIDTH 6 0
BBX 4 1 1 2
BITMAP
F0
ENDCHAR
STARTCHAR period
ENCODING 46
SWIDTH 500 0
DWIDTH 4 0
BBX 2 2 1 0
BITMAP
C0
C0
ENDCHAR
STARTCHAR slash
ENCODING 47
SWIDTH 875 0
DWIDTH 7 0
BBX 6 9 0 -1
BITMAP
0C
0C
18
18
30
30
60
60
C0
ENDCHAR
STARTCHAR zero
ENCODING 48
SWIDTH 875 0
DWIDTH 7 0
BBX 5 7 1 0
BITMAP
70
D8
D8
D8
D8
D8
70
ENDCHAR
STARTCHAR one
ENCODING 49
SWIDTH 750 0
DWIDTH 6 0
BBX 4 7 1 0
BITMAP
70
F0
B0
30
30
30
30
ENDCHAR
STARTCHAR two
ENCODING 50
SWIDTH 875 0
DWIDTH 7 0
BBX 5 7 1 0
BITMAP
70
D8
18
30
60
C0
F8
ENDCHAR
STARTCHAR three
ENCODING 51
SWIDTH 875 0
DWIDTH 7 0
BBX 5 7 1 0
BITMAP
F8
30
60
70
18
18
F0
ENDCHAR
STARTCHAR four
ENCODING 52
SWIDTH 875 0
DWIDTH 7 0
BBX 6 7 1 0
BITMAP
30
30
60
58
D8
FC
18
ENDCHAR
STARTCHAR five
ENCODING 53
SWIDTH 875 0
DWIDTH 7 0
BBX 6 7 1 0
BITMAP
7C
60
78
4C
0C
CC
78
ENDCHAR
STARTCHAR six
ENCODING 54
SWIDTH 875 0
DWIDTH 7 0
BBX 5 7 1 0
BITMAP
30
60
D0
F8
D8
D8
70
ENDCHAR
STARTCHAR seven
ENCODING 55
SWIDTH 875 0
DWIDTH 7 0
BBX 5 7 1 0
BITMAP
F8
18
30
30
60
60
60
ENDCHAR
STARTCHAR eight
ENCODING 56
SWIDTH 875 0
DWIDTH 7 0
BBX 5 7 1 0
BITMAP
70
D8
D8
70
D8
D8
70
ENDCHAR
STARTCHAR nine
ENCODING 57
SWIDTH 875 0
DWIDTH 7 0
BBX 5 7 1 0
BITMAP
70
D8
D8
F8
58
30
60
ENDCHAR
STARTCHAR colon
ENCODING 58
SWIDTH 750 0
DWIDTH 6 0
BBX 2 5 2 0
BITMAP
C0
C0
00
C0
C0
ENDCHAR
STARTCHAR semicolon
ENCODING 59
SWIDTH 750 0
DWIDTH 6 0
BBX 2 6 2 -1
BITMAP
C0
C0
00
C0
C0
80
ENDCHAR
STARTCHAR less
ENCODING 60
SWIDTH 750 0
DWIDTH 6 0
BBX 4 5 1 0
BITMAP
30
60
C0
60
30
ENDCHAR
STARTCHAR equal
ENCODING 61
SWIDTH 625 0
DWIDTH 5 0
BBX 4 3 1 1
BITMAP
F0
00
F0
ENDCHAR
STARTCHAR greater
ENCODING 62
SWIDTH 750 0
DWIDTH 6 0
BBX 4 5 1 0
BITMAP
C0
60
30
60
C0
ENDCHAR
STARTCHAR question
ENCODING 63
SWIDTH 1000 0
DWIDTH 8 0
BBX 5 7 2 0
BITMAP
70
98
10
20
60
00
60
ENDCHAR
STARTCHAR at
ENCODING 64
SWIDTH 1375 0
DWIDTH 11 0
BBX 10 10 1 -1
BITMAP
1E00
6180
4080
9E40
B640
B640
B6C0
9F80
4000
3F00
ENDCHAR
STARTCHAR A
ENCODING 65
SWIDTH 1000 0
DWIDTH 8 0
BBX 7 7 1 0
BITMAP
30
30
78
58
4C
FC
CE
ENDCHAR
STARTCHAR B
ENCODING 66
SWIDTH 875 0
DWIDTH 7 0
BBX 6 7 1 0
BITMAP
F0
D8
D0
F8
CC
CC
F8
ENDCHAR
STARTCHAR C
ENCODING 67
SWIDTH 750 0
DWIDTH 6 0
BBX 5 7 1 0
BITMAP
38
60
C0
C0
C0
60
38
ENDCHAR
STARTCHAR D
ENCODING 68
SWIDTH 1000 0
DWIDTH 8 0
BBX 6 7 1 0
BITMAP
F0
D8
CC
CC
CC
D8
F0
ENDCHAR
STARTCHAR E
ENCODING 69
SWIDTH 750 0
DWIDTH 6 0
BBX 4 7 1 0
BITMAP
F0
C0
C0
F0
C0
C0
F0
ENDCHAR
STARTCHAR F
ENCODING 70
SWIDTH 750 0
DWIDTH 6 0
BBX 4 7 1 0
BITMAP
F0
C0
C0
F0
C0
C0
C0
ENDCHAR
STARTCHAR G
ENCODING 71
SWIDTH 1000 0
DWIDTH 8 0
BBX 6 7 1 0
BITMAP
3C
60
C0
CC
CC
6C
3C
ENDCHAR
STARTCHAR H
ENCODING 72
SWIDTH 1000 0
DWIDTH 8 0
BBX 6 7 1 0
BITMAP
CC
CC
CC
FC
CC
CC
CC
ENDCHAR
STARTCHAR I
ENCODING 73
SWIDTH 625 0
DWIDTH 5 0
BBX 2 7 2 0
BITMAP
C0
C0
C0
C0
C0
C0
C0
ENDCHAR
STARTCHAR J
ENCODING 74
SWIDTH 625 0
DWIDTH 5 0
BBX 4 8 0 -1
BITMAP
30
30
30
30
30
30
30
E0
ENDCHAR
STARTCHAR K
ENCODING 75
SWIDTH 875 0
DWIDTH 7 0
BBX 6 7 1 0
BITMAP
C8
D8
F0
E0
F0
D8
CC
ENDCHAR
STARTCHAR L
ENCODING 76
SWIDTH 750 0
DWIDTH 6 0
BBX 4 7 1 0
BITMAP
C0
C0
C0
C0
C0
C0
F0
ENDCHAR
STARTCHAR M
ENCODING 77
SWIDTH 1250 0
DWIDTH 10 0
BBX 8 7 1 0
BITMAP
C3
E7
E7
FF
DB
DB
C3
ENDCHAR
STARTCHAR N
ENCODING 78
SWIDTH 1000 0
DWIDTH 8 0
BBX 6 7 1 0
BITMAP
CC
CC
EC
FC
DC
DC
CC
ENDCHAR
STARTCHAR O
ENCODING 79
SWIDTH 1125 0
DWIDTH 9 0
BBX 7 7 1 0
BITMAP
38
6C
C6
C6
C6
6C
38
ENDCHAR
STARTCHAR P
ENCODING 80
SWIDTH 750 0
DWIDTH 6 0
BBX 5 7 1 0
BITMAP
F0
D8
D8
D8
F0
C0
C0
ENDCHAR
STARTCHAR Q
ENCODING 81
SWIDTH 1125 0
DWIDTH 9 0
BBX 7 7 1 0
BITMAP
38
6C
C6
D6
DE
6C
36
ENDCHAR
STARTCHAR R
ENCODING 82
SWIDTH 875 0
DWIDTH 7 0
BBX 6 7 1 0
BITMAP
F0
D8
D8
F0
F0
D8
CC
ENDCHAR
STARTCHAR S
ENCODING 83
SWIDTH 750 0
DWIDTH 6 0
BBX 5 7 1 0
BITMAP
70
C0
E0
70
38
18
F0
ENDCHAR
STARTCHAR T
ENCODING 84
SWIDTH 875 0
DWIDTH 7 0
BBX 6 7 1 0
BITMAP
FC
30
30
30
30
30
30
ENDCHAR
STARTCHAR U
ENCODING 85
SWIDTH 1000 0
DWIDTH 8 0
BBX 6 7 1 0
BITMAP
CC
CC
CC
CC
CC
CC
78
ENDCHAR
STARTCHAR V
ENCODING 86
SWIDTH 875 0
DWIDTH 7 0
BBX 6 7 1 0
BITMAP
C4
CC
68
68
78
30
30
ENDCHAR
STARTCHAR W
ENCODING 87
SWIDTH 1375 0
DWIDTH 11 0
BBX 10 7 1 0
BITMAP
C8C0
CC80
6C80
6D80
7700
3700
3300
ENDCHAR
STARTCHAR X
ENCODING 88
SWIDTH 1000 0
DWIDTH 8 0
BBX 7 7 1 0
BITMAP
EC
68
38
30
78
4C
CE
ENDCHAR
STARTCHAR Y
ENCODING 89
SWIDTH 875 0
DWIDTH 7 0
BBX 6 7 1 0
BITMAP
CC
C8
78
70
30
30
30
ENDCHAR
STARTCHAR Z
ENCODING 90
SWIDTH 875 0
DWIDTH 7 0
BBX 6 7 1 0
BITMAP
F8
18
30
30
60
60
FC
ENDCHAR
STARTCHAR bracketleft
ENCODING 91
SWIDTH 875 0
DWIDTH 7 0
BBX 4 10 2 -2
BITMAP
F0
C0
C0
C0
C0
C0
C0
C0
C0
F0
ENDCHAR
STARTCHAR backslash
ENCODING 92
SWIDTH 875 0
DWIDTH 7 0
BBX 6 9 0 -1
BITMAP
C0
C0
60
60
30
30
18
18
0C
ENDCHAR
STARTCHAR bracketright
ENCODING 93
SWIDTH 875 0
DWIDTH 7 0
BBX 4 10 1 -2
BITMAP
F0
30
30
30
30
30
30
30
30
F0
ENDCHAR
STARTCHAR asciicircum
ENCODING 94
SWIDTH 875 0
DWIDTH 7 0
BBX 5 3 1 5
BITMAP
20
70
88
ENDCHAR
STARTCHAR underscore
ENCODING 95
SWIDTH 875 0
DWIDTH 7 0
BBX 7 1 0 -2
BITMAP
FE
ENDCHAR
STARTCHAR a
ENCODING 97
SWIDTH 750 0
DWIDTH 6 0
BBX 5 5 1 0
BITMAP
70
18
78
D8
78
ENDCHAR
STARTCHAR b
ENCODING 98
SWIDTH 750 0
DWIDTH 6 0
BBX 5 7 1 0
BITMAP
C0
C0
F0
D8
D8
D8
F0
ENDCHAR
STARTCHAR c
ENCODING 99
SWIDTH 625 0
DWIDTH 5 0
BBX 4 5 1 0
BITMAP
70
C0
C0
C0
70
ENDCHAR
STARTCHAR d
ENCODING 100
SWIDTH 750 0
DWIDTH 6 0
BBX 5 7 1 0
BITMAP
18
18
78
D8
D8
D8
78
ENDCHAR
STARTCHAR e
ENCODING 101
SWIDTH 750 0
DWIDTH 6 0
BBX 5 5 1 0
BITMAP
70
D8
F8
C0
70
ENDCHAR
STARTCHAR f
ENCODING 102
SWIDTH 625 0
DWIDTH 5 0
BBX 5 7 1 0
BITMAP
38
60
F0
60
60
60
60
ENDCHAR
STARTCHAR g
ENCODING 103
SWIDTH 750 0
DWIDTH 6 0
BBX 5 7 1 -2
BITMAP
78
D8
D8
D8
78
18
70
ENDCHAR
STARTCHAR h
ENCODING 104
SWIDTH 750 0
DWIDTH 6 0
BBX 5 7 1 0
BITMAP
C0
C0
F0
D8
D8
D8
D8
ENDCHAR
STARTCHAR i
ENCODING 105
SWIDTH 625 0
DWIDTH 5 0
BBX 2 7 2 0
BITMAP
C0
00
C0
C0
C0
C0
C0
ENDCHAR
STARTCHAR j
ENCODING 106
SWIDTH 625 0
DWIDTH 5 0
BBX 4 9 0 -2
BITMAP
30
00
30
30
30
30
30
30
E0
ENDCHAR
STARTCHAR k
ENCODING 107
SWIDTH 875 0
DWIDTH 7 0
BBX 6 7 1 0
BITMAP
C0
C0
D8
F0
F0
D8
CC
ENDCHAR
STARTCHAR l
ENCODING 108
SWIDTH 625 0
DWIDTH 5 0
BBX 4 7 1 0
BITMAP
C0
C0
C0
C0
C0
C0
70
ENDCHAR
STARTCHAR m
ENCODING 109
SWIDTH 1125 0
DWIDTH 9 0
BBX 8 5 1 0
BITMAP
F6
DB
DB
DB
DB
ENDCHAR
STARTCHAR n
ENCODING 110
SWIDTH 750 0
DWIDTH 6 0
BBX 5 5 1 0
BITMAP
F0
D8
D8
D8
D8
ENDCHAR
STARTCHAR o
ENCODING 111
SWIDTH 750 0
DWIDTH 6 0
BBX 5 5 1 0
BITMAP
70
D8
D8
D8
70
ENDCHAR
STARTCHAR p
ENCODING 112
SWIDTH 750 0
DWIDTH 6 0
BBX 5 7 1 -2
BITMAP
F0
D8
D8
D8
F0
C0
C0
ENDCHAR
STARTCHAR q
ENCODING 113
SWIDTH 750 0
DWIDTH 6 0
BBX 5 7 1 -2
BITMAP
78
D8
D8
D8
78
18
18
ENDCHAR
STARTCHAR r
ENCODING 114
SWIDTH 625 0
DWIDTH 5 0
BBX 4 5 1 0
BITMAP
F0
C0
C0
C0
C0
ENDCHAR
STARTCHAR s
ENCODING 115
SWIDTH 750 0
DWIDTH 6 0
BBX 5 5 1 0
BITMAP
70
C0
70
18
F0
ENDCHAR
STARTCHAR t
ENCODING 116
SWIDTH 625 0
DWIDTH 5 0
BBX 4 7 1 0
BITMAP
60
60
F0
60
60
60
30
ENDCHAR
STARTCHAR u
ENCODING 117
SWIDTH 750 0
DWIDTH 6 0
BBX 5 5 1 0
BITMAP
D8
D8
D8
D8
78
ENDCHAR
STARTCHAR v
ENCODING 118
SWIDTH 750 0
DWIDTH 6 0
BBX 5 5 1 0
BITMAP
C8
D8
70
70
20
ENDCHAR
STARTCHAR w
ENCODING 119
SWIDTH 1250 0
DWIDTH 10 0
BBX 9 5 1 0
BITMAP
C880
CD80
7F00
7700
2200
ENDCHAR
STARTCHAR x
ENCODING 120
SWIDTH 750 0
DWIDTH 6 0
BBX 5 5 1 0
BITMAP
D8
70
20
70
D8
ENDCHAR
STARTCHAR y
ENCODING 121
SWIDTH 875 0
DWIDTH 7 0
BBX 6 7 1 -2
BITMAP
CC
C8
68
78
30
30
60
ENDCHAR
STARTCHAR z
ENCODING 122
SWIDTH 750 0
DWIDTH 6 0
BBX 5 5 1 0
BITMAP
F8
30
60
C0
F8
ENDCHAR
STARTCHAR braceleft
ENCODING 123
SWIDTH 875 0
DWIDTH 7 0
BBX 4 10 1 -2
BITMAP
30
60
60
60
C0
60
60
60
60
30
ENDCHAR
STARTCHAR bar
ENCODING 124
SWIDTH 750 0
DWIDTH 6 0
BBX 2 10 2 -2
BITMAP
C0
C0
C0
C0
C0
C0
C0
C0
C0
C0
ENDCHAR
STARTCHAR braceright
ENCODING 125
SWIDTH 875 0
DWIDTH 7 0
BBX 4 10 1 -2
BITMAP
C0
60
60
60
30
60
60
60
60
C0
ENDCHAR
STARTCHAR Euro
ENCODING 164
SWIDTH 875 0
DWIDTH 7 0
BBX 6 7 0 0
BITMAP
3C
64
60
FC
60
64
3C
ENDCHAR
STARTCHAR degree
ENCODING 176
SWIDTH 625 0
DWIDTH 5 0
BBX 3 3 1 4
BITMAP
40
A0
40
ENDCHAR
STARTCHAR Agrave
ENCODING 192
SWIDTH 1000 0
DWIDTH 8 0
BBX 7 10 1 0
BITMAP
40
20
00
30
30
78
58
4C
FC
CE
ENDCHAR
STARTCHAR Acircumflex
ENCODING 194
SWIDTH 1000 0
DWIDTH 8 0
BBX 7 10 1 0
BITMAP
30
48
00
30
30
78
58
4C
FC
CE
ENDCHAR
STARTCHAR Ccedilla
ENCODING 199
SWIDTH 750 0
DWIDTH 6 0
BBX 5 9 1 -2
BITMAP
38
60
C0
C0
C0
60
38
08
38
ENDCHAR
STARTCHAR Egrave
ENCODING 200
SWIDTH 750 0
DWIDTH 6 0
BBX 4 10 1 0
BITMAP
40
20
00
F0
C0
C0
F0
C0
C0
F0
ENDCHAR
STARTCHAR Eacute
ENCODING 201
SWIDTH 750 0
DWIDTH 6 0
BBX 4 10 1 0
BITMAP
10
20
00
F0
C0
C0
F0
C0
C0
F0
ENDCHAR
STARTCHAR Ecircumflex
ENCODING 202
SWIDTH 750 0
DWIDTH 6 0
BBX 4 10 1 0
BITMAP
60
90
00
F0
C0
C0
F0
C0
C0
F0
ENDCHAR
STARTCHAR Edieresis
ENCODING 203
SWIDTH 750 0
DWIDTH 6 0
BBX 4 9 1 0
BITMAP
A0
00
F0
C0
C0
F0
C0
C0
F0
ENDCHAR
STARTCHAR Icircumflex
ENCODING 206
SWIDTH 625 0
DWIDTH 5 0
BBX 4 10 1 0
BITMAP
60
90
00
60
60
60
60
60
60
60
ENDCHAR
STARTCHAR Idieresis
ENCODING 207
SWIDTH 625 0
DWIDTH 5 0
BBX 4 9 1 0
BITMAP
90
00
60
60
60
60
60
60
60
ENDCHAR
STARTCHAR Ocircumflex
ENCODING 212
SWIDTH 1125 0
DWIDTH 9 0
BBX 7 10 1 0
BITMAP
18
24
00
38
6C
C6
C6
C6
6C
38
ENDCHAR
STARTCHAR Ugrave
ENCODING 217
SWIDTH 1000 0
DWIDTH 8 0
BBX 6 10 1 0
BITMAP
20
10
00
CC
CC
CC
CC
CC
CC
78
ENDCHAR
STARTCHAR Ucircumflex
ENCODING 219
SWIDTH 1000 0
DWIDTH 8 0
BBX 6 10 1 0
BITMAP
30
48
00
CC
CC
CC
CC
CC
CC
78
ENDCHAR
STARTCHAR Udieresis
ENCODING 220
SWIDTH 1000 0
DWIDTH 8 0
BBX 6 9 1 0
BITMAP
48
00
CC
CC
CC
CC
CC
CC
78
ENDCHAR
STARTCHAR agrave
ENCODING 224
SWIDTH 750 0
DWIDTH 6 0
BBX 5 8 1 0
BITMAP
40
20
00
70
18
78
D8
78
ENDCHAR
STARTCHAR acircumflex
ENCODING 226
SWIDTH 750 0
DWIDTH 6 0
BBX 5 8 1 0
BITMAP
20
50
00
70
18
78
D8
78
ENDCHAR
STARTCHAR ccedilla
ENCODING 231
SWIDTH 625 0
DWIDTH 5 0
BBX 4 7 1 -2
BITMAP
70
C0
C0
C0
70
30
60
ENDCHAR
STARTCHAR egrave
ENCODING 232
SWIDTH 750 0
DWIDTH 6 0
BBX 5 8 1 0
BITMAP
40
20
00
70
D8
F8
C0
70
ENDCHAR
STARTCHAR eacute
ENCODING 233
SWIDTH 750 0
DWIDTH 6 0
BBX 5 8 1 0
BITMAP
10
20
00
70
D8
F8
C0
70
ENDCHAR
STARTCHAR ecircumflex
ENCODING 234
SWIDTH 750 0
DWIDTH 6 0
BBX 5 8 1 0
BITMAP
20
50
00
70
D8
F8
C0
70
ENDCHAR
STARTCHAR edieresis
ENCODING 235
SWIDTH 750 0
DWIDTH 6 0
BBX 5 7 1 0
BITMAP
50
00
70
D8
F8
C0
70
ENDCHAR
STARTCHAR icircumflex
ENCODING 238
SWIDTH 625 0
DWIDTH 5 0
BBX 4 8 1 0
BITMAP
60
90
00
60
60
60
60
60
ENDCHAR
STARTCHAR idieresis
ENCODING 239
SWIDTH 625 0
DWIDTH 5 0
BBX 4 7 1 0
BITMAP
90
00
60
60
60
60
60
ENDCHAR
STARTCHAR ocircumflex
ENCODING 244
SWIDTH 750 0
DWIDTH 6 0
BBX 5 8 1 0
BITMAP
20
50
00
70
D8
D8
D8
70
ENDCHAR
STARTCHAR ugrave
ENCODING 249
SWIDTH 750 0
DWIDTH 6 0
BBX 5 8 1 0
BITMAP
40
20
00
D8
D8
D8
D8
78
ENDCHAR
STARTCHAR ucircumflex
ENCODING 251
SWIDTH 750 0
DWIDTH 6 0
BBX 5 8 1 0
BITMAP
20
50
00
D8
D8
D8
D8
78
ENDCHAR
STARTCHAR udieresis
ENCODING 252
SWIDTH 750 0
DWIDTH 6 0
BBX 5 7 1 0
BITMAP
50
00
D8
D8
D8
D8
78
ENDCHAR
ENDFONT
